<svg width="149" height="107" viewBox="0 0 149 107" fill="none" xmlns="http://www.w3.org/2000/svg">
<path d="M6.94 100.12C6.74 100.12 6.58667 100.067 6.48 99.96C6.37333 99.84 6.32 99.68 6.32 99.48V87H1.54C1.35333 87 1.20667 86.9467 1.1 86.84C0.993333 86.7333 0.94 86.6 0.94 86.44C0.94 86.2667 0.993333 86.1333 1.1 86.04C1.20667 85.9467 1.35333 85.9 1.54 85.9H12.36C12.5467 85.9 12.6867 85.9467 12.78 86.04C12.8867 86.1333 12.94 86.2667 12.94 86.44C12.94 86.6133 12.8867 86.7533 12.78 86.86C12.6867 86.9533 12.5467 87 12.36 87H7.56V99.48C7.56 99.68 7.50667 99.84 7.4 99.96C7.30667 100.067 7.15333 100.12 6.94 100.12ZM16.8116 100.16C15.9049 100.16 15.1182 99.9533 14.4516 99.54C13.7849 99.1267 13.2649 98.5467 12.8916 97.8C12.5316 97.0533 12.3516 96.1667 12.3516 95.14C12.3516 94.38 12.4516 93.6933 12.6516 93.08C12.8649 92.4667 13.1649 91.94 13.5516 91.5C13.9516 91.0467 14.4249 90.7067 14.9716 90.48C15.5316 90.24 16.1449 90.12 16.8116 90.12C17.7316 90.12 18.5249 90.3267 19.1916 90.74C19.8582 91.1533 20.3716 91.74 20.7316 92.5C21.1049 93.2467 21.2916 94.1267 21.2916 95.14C21.2916 95.9133 21.1849 96.6067 20.9716 97.22C20.7716 97.8333 20.4716 98.36 20.0716 98.8C19.6849 99.24 19.2182 99.58 18.6716 99.82C18.1249 100.047 17.5049 100.16 16.8116 100.16ZM16.8116 99.14C17.4782 99.14 18.0516 98.9867 18.5316 98.68C19.0249 98.36 19.3982 97.9 19.6516 97.3C19.9182 96.7 20.0516 95.98 20.0516 95.14C20.0516 93.8733 19.7582 92.8933 19.1716 92.2C18.5982 91.5067 17.8116 91.16 16.8116 91.16C16.1582 91.16 15.5849 91.32 15.0916 91.64C14.6116 91.9467 14.2382 92.4 13.9716 93C13.7182 93.5867 13.5916 94.3 13.5916 95.14C13.5916 96.42 13.8849 97.4067 14.4716 98.1C15.0582 98.7933 15.8382 99.14 16.8116 99.14ZM24.5091 100.12C24.3091 100.12 24.1557 100.067 24.0491 99.96C23.9424 99.8533 23.8891 99.7 23.8891 99.5V86.4C23.8891 86.1867 23.9424 86.0333 24.0491 85.94C24.1557 85.8333 24.3091 85.78 24.5091 85.78C24.6957 85.78 24.8424 85.8333 24.9491 85.94C25.0557 86.0333 25.1091 86.1867 25.1091 86.4V94.7H25.1491L29.6291 90.6C29.7757 90.4667 29.9024 90.36 30.0091 90.28C30.1291 90.2 30.2824 90.16 30.4691 90.16C30.6291 90.16 30.7557 90.2067 30.8491 90.3C30.9424 90.3933 30.9824 90.5067 30.9691 90.64C30.9691 90.76 30.9024 90.8933 30.7691 91.04L26.0091 95.38V94.6L31.1891 99.2C31.3491 99.3467 31.4291 99.4933 31.4291 99.64C31.4424 99.7733 31.4024 99.8867 31.3091 99.98C31.2157 100.073 31.0891 100.12 30.9291 100.12C30.7557 100.12 30.6091 100.08 30.4891 100C30.3691 99.9333 30.2224 99.82 30.0491 99.66L25.1491 95.34H25.1091V99.5C25.1091 99.9133 24.9091 100.12 24.5091 100.12ZM37.5231 100.16C36.5231 100.16 35.6631 99.96 34.9431 99.56C34.2231 99.16 33.6698 98.5867 33.2831 97.84C32.8965 97.0933 32.7031 96.2067 32.7031 95.18C32.7031 94.1667 32.8965 93.2867 33.2831 92.54C33.6698 91.78 34.2031 91.1867 34.8831 90.76C35.5765 90.3333 36.3698 90.12 37.2631 90.12C37.9165 90.12 38.4898 90.2333 38.9831 90.46C39.4898 90.6733 39.9165 90.9867 40.2631 91.4C40.6231 91.8 40.8965 92.2933 41.0831 92.88C41.2698 93.4533 41.3631 94.1067 41.3631 94.84C41.3631 95.0267 41.3098 95.1667 41.2031 95.26C41.1098 95.3533 40.9765 95.4 40.8031 95.4H33.5831V94.5H40.6031L40.2831 94.76C40.2831 93.9867 40.1698 93.3333 39.9431 92.8C39.7165 92.2533 39.3765 91.8333 38.9231 91.54C38.4831 91.2467 37.9365 91.1 37.2831 91.1C36.5498 91.1 35.9298 91.2733 35.4231 91.62C34.9165 91.9533 34.5365 92.42 34.2831 93.02C34.0298 93.6067 33.9031 94.2867 33.9031 95.06V95.16C33.9031 96.44 34.2165 97.4267 34.8431 98.12C35.4698 98.8 36.3498 99.14 37.4831 99.14C37.9765 99.14 38.4498 99.0733 38.9031 98.94C39.3698 98.8067 39.8231 98.58 40.2631 98.26C40.3965 98.1667 40.5231 98.12 40.6431 98.12C40.7765 98.12 40.8831 98.1533 40.9631 98.22C41.0565 98.2867 41.1165 98.3733 41.1431 98.48C41.1831 98.5733 41.1765 98.68 41.1231 98.8C41.0831 98.9067 40.9965 99.0067 40.8631 99.1C40.4365 99.4467 39.9231 99.7133 39.3231 99.9C38.7231 100.073 38.1231 100.16 37.5231 100.16ZM44.47 100.12C44.27 100.12 44.1167 100.067 44.01 99.96C43.9033 99.8533 43.85 99.7 43.85 99.5V90.8C43.85 90.5867 43.9033 90.4267 44.01 90.32C44.1167 90.2133 44.27 90.16 44.47 90.16C44.6567 90.16 44.7967 90.2133 44.89 90.32C44.9967 90.4267 45.05 90.5867 45.05 90.8V92.68L44.83 92.56C45.0967 91.76 45.55 91.1533 46.19 90.74C46.8433 90.3267 47.59 90.12 48.43 90.12C49.2033 90.12 49.8433 90.26 50.35 90.54C50.87 90.8067 51.2567 91.22 51.51 91.78C51.7633 92.34 51.89 93.04 51.89 93.88V99.5C51.89 99.7 51.8367 99.8533 51.73 99.96C51.6233 100.067 51.4767 100.12 51.29 100.12C51.09 100.12 50.9367 100.067 50.83 99.96C50.7233 99.8533 50.67 99.7 50.67 99.5V93.98C50.67 93.0067 50.4767 92.3 50.09 91.86C49.7033 91.4067 49.09 91.18 48.25 91.18C47.29 91.18 46.5167 91.48 45.93 92.08C45.3567 92.6667 45.07 93.46 45.07 94.46V99.5C45.07 99.9133 44.87 100.12 44.47 100.12ZM64.3005 103.76C63.5805 103.76 62.8805 103.667 62.2005 103.48C61.5338 103.307 60.9271 103.02 60.3805 102.62C60.2738 102.553 60.2005 102.467 60.1605 102.36C60.1338 102.253 60.1338 102.147 60.1605 102.04C60.1871 101.947 60.2338 101.86 60.3005 101.78C60.3805 101.7 60.4671 101.653 60.5605 101.64C60.6671 101.627 60.7738 101.647 60.8805 101.7C61.4671 102.087 62.0271 102.353 62.5605 102.5C63.1071 102.66 63.6738 102.74 64.2605 102.74C65.2338 102.74 65.9738 102.467 66.4805 101.92C66.9871 101.387 67.2405 100.62 67.2405 99.62V97.14H67.4405C67.2405 97.9667 66.8138 98.6133 66.1605 99.08C65.5071 99.5467 64.7338 99.78 63.8405 99.78C62.9471 99.78 62.1738 99.58 61.5205 99.18C60.8671 98.7667 60.3605 98.2 60.0005 97.48C59.6538 96.7467 59.4805 95.9 59.4805 94.94C59.4805 94.22 59.5805 93.5667 59.7805 92.98C59.9805 92.3933 60.2671 91.8867 60.6405 91.46C61.0271 91.0333 61.4871 90.7067 62.0205 90.48C62.5538 90.24 63.1605 90.12 63.8405 90.12C64.7338 90.12 65.5071 90.36 66.1605 90.84C66.8138 91.3067 67.2338 91.94 67.4205 92.74L67.2205 92.86V90.8C67.2205 90.5867 67.2738 90.4267 67.3805 90.32C67.4871 90.2133 67.6338 90.16 67.8205 90.16C68.0205 90.16 68.1671 90.2133 68.2605 90.32C68.3671 90.4267 68.4205 90.5867 68.4205 90.8V99.44C68.4205 100.867 68.0738 101.94 67.3805 102.66C66.6871 103.393 65.6605 103.76 64.3005 103.76ZM63.9805 98.74C64.6471 98.74 65.2205 98.5867 65.7005 98.28C66.1938 97.96 66.5738 97.52 66.8405 96.96C67.1071 96.3867 67.2405 95.7133 67.2405 94.94C67.2405 93.78 66.9471 92.86 66.3605 92.18C65.7738 91.5 64.9805 91.16 63.9805 91.16C63.3138 91.16 62.7338 91.3133 62.2405 91.62C61.7471 91.9267 61.3671 92.3667 61.1005 92.94C60.8471 93.5 60.7205 94.1667 60.7205 94.94C60.7205 96.1 61.0138 97.0267 61.6005 97.72C62.1871 98.4 62.9805 98.74 63.9805 98.74ZM75.863 100.16C74.863 100.16 74.003 99.96 73.283 99.56C72.563 99.16 72.0096 98.5867 71.623 97.84C71.2363 97.0933 71.043 96.2067 71.043 95.18C71.043 94.1667 71.2363 93.2867 71.623 92.54C72.0096 91.78 72.543 91.1867 73.223 90.76C73.9163 90.3333 74.7096 90.12 75.603 90.12C76.2563 90.12 76.8296 90.2333 77.323 90.46C77.8296 90.6733 78.2563 90.9867 78.603 91.4C78.963 91.8 79.2363 92.2933 79.423 92.88C79.6096 93.4533 79.703 94.1067 79.703 94.84C79.703 95.0267 79.6496 95.1667 79.543 95.26C79.4496 95.3533 79.3163 95.4 79.143 95.4H71.923V94.5H78.943L78.623 94.76C78.623 93.9867 78.5096 93.3333 78.283 92.8C78.0563 92.2533 77.7163 91.8333 77.263 91.54C76.823 91.2467 76.2763 91.1 75.623 91.1C74.8896 91.1 74.2696 91.2733 73.763 91.62C73.2563 91.9533 72.8763 92.42 72.623 93.02C72.3696 93.6067 72.243 94.2867 72.243 95.06V95.16C72.243 96.44 72.5563 97.4267 73.183 98.12C73.8096 98.8 74.6896 99.14 75.823 99.14C76.3163 99.14 76.7896 99.0733 77.243 98.94C77.7096 98.8067 78.163 98.58 78.603 98.26C78.7363 98.1667 78.863 98.12 78.983 98.12C79.1163 98.12 79.223 98.1533 79.303 98.22C79.3963 98.2867 79.4563 98.3733 79.483 98.48C79.523 98.5733 79.5163 98.68 79.463 98.8C79.423 98.9067 79.3363 99.0067 79.203 99.1C78.7763 99.4467 78.263 99.7133 77.663 99.9C77.063 100.073 76.463 100.16 75.863 100.16ZM82.8098 100.12C82.6098 100.12 82.4565 100.067 82.3498 99.96C82.2432 99.8533 82.1898 99.7 82.1898 99.5V90.8C82.1898 90.5867 82.2432 90.4267 82.3498 90.32C82.4565 90.2133 82.6098 90.16 82.8098 90.16C82.9965 90.16 83.1365 90.2133 83.2298 90.32C83.3365 90.4267 83.3898 90.5867 83.3898 90.8V92.68L83.1698 92.56C83.4365 91.76 83.8898 91.1533 84.5298 90.74C85.1832 90.3267 85.9298 90.12 86.7698 90.12C87.5432 90.12 88.1832 90.26 88.6898 90.54C89.2098 90.8067 89.5965 91.22 89.8498 91.78C90.1032 92.34 90.2298 93.04 90.2298 93.88V99.5C90.2298 99.7 90.1765 99.8533 90.0698 99.96C89.9632 100.067 89.8165 100.12 89.6298 100.12C89.4298 100.12 89.2765 100.067 89.1698 99.96C89.0632 99.8533 89.0098 99.7 89.0098 99.5V93.98C89.0098 93.0067 88.8165 92.3 88.4298 91.86C88.0432 91.4067 87.4298 91.18 86.5898 91.18C85.6298 91.18 84.8565 91.48 84.2698 92.08C83.6965 92.6667 83.4098 93.46 83.4098 94.46V99.5C83.4098 99.9133 83.2098 100.12 82.8098 100.12ZM97.6013 100.16C96.6013 100.16 95.7413 99.96 95.0213 99.56C94.3013 99.16 93.7479 98.5867 93.3613 97.84C92.9746 97.0933 92.7813 96.2067 92.7813 95.18C92.7813 94.1667 92.9746 93.2867 93.3613 92.54C93.7479 91.78 94.2813 91.1867 94.9613 90.76C95.6546 90.3333 96.4479 90.12 97.3413 90.12C97.9946 90.12 98.5679 90.2333 99.0613 90.46C99.5679 90.6733 99.9946 90.9867 100.341 91.4C100.701 91.8 100.975 92.2933 101.161 92.88C101.348 93.4533 101.441 94.1067 101.441 94.84C101.441 95.0267 101.388 95.1667 101.281 95.26C101.188 95.3533 101.055 95.4 100.881 95.4H93.6613V94.5H100.681L100.361 94.76C100.361 93.9867 100.248 93.3333 100.021 92.8C99.7946 92.2533 99.4546 91.8333 99.0013 91.54C98.5613 91.2467 98.0146 91.1 97.3613 91.1C96.6279 91.1 96.0079 91.2733 95.5013 91.62C94.9946 91.9533 94.6146 92.42 94.3613 93.02C94.1079 93.6067 93.9813 94.2867 93.9813 95.06V95.16C93.9813 96.44 94.2946 97.4267 94.9213 98.12C95.5479 98.8 96.4279 99.14 97.5613 99.14C98.0546 99.14 98.5279 99.0733 98.9813 98.94C99.4479 98.8067 99.9013 98.58 100.341 98.26C100.475 98.1667 100.601 98.12 100.721 98.12C100.855 98.12 100.961 98.1533 101.041 98.22C101.135 98.2867 101.195 98.3733 101.221 98.48C101.261 98.5733 101.255 98.68 101.201 98.8C101.161 98.9067 101.075 99.0067 100.941 99.1C100.515 99.4467 100.001 99.7133 99.4013 99.9C98.8013 100.073 98.2013 100.16 97.6013 100.16ZM104.548 100.12C104.348 100.12 104.195 100.067 104.088 99.96C103.981 99.8533 103.928 99.7 103.928 99.5V90.8C103.928 90.5867 103.981 90.4267 104.088 90.32C104.195 90.2133 104.348 90.16 104.548 90.16C104.735 90.16 104.875 90.2133 104.968 90.32C105.075 90.4267 105.128 90.5867 105.128 90.8V92.58H104.928C105.168 91.7933 105.595 91.1867 106.208 90.76C106.835 90.3333 107.581 90.1133 108.448 90.1C108.608 90.0867 108.741 90.12 108.848 90.2C108.955 90.28 109.008 90.4067 109.008 90.58C109.021 90.7667 108.981 90.9133 108.888 91.02C108.795 91.1133 108.641 91.1733 108.428 91.2L108.148 91.22C107.201 91.3133 106.468 91.6267 105.948 92.16C105.428 92.6933 105.168 93.4133 105.168 94.32V99.5C105.168 99.7 105.115 99.8533 105.008 99.96C104.915 100.067 104.761 100.12 104.548 100.12ZM113.666 100.16C113.013 100.16 112.426 100.033 111.906 99.78C111.4 99.5267 110.993 99.18 110.686 98.74C110.393 98.3 110.246 97.8067 110.246 97.26C110.246 96.54 110.426 95.9733 110.786 95.56C111.146 95.1467 111.753 94.86 112.606 94.7C113.46 94.5267 114.633 94.44 116.126 94.44H116.986V95.34H116.146C114.946 95.34 114.006 95.3933 113.326 95.5C112.66 95.5933 112.193 95.7733 111.926 96.04C111.66 96.3067 111.526 96.68 111.526 97.16C111.526 97.76 111.733 98.2467 112.146 98.62C112.56 98.9933 113.12 99.18 113.826 99.18C114.4 99.18 114.9 99.0467 115.326 98.78C115.766 98.5 116.113 98.12 116.366 97.64C116.62 97.16 116.746 96.6133 116.746 96V93.72C116.746 92.8267 116.566 92.18 116.206 91.78C115.846 91.3667 115.273 91.16 114.486 91.16C113.98 91.16 113.486 91.2267 113.006 91.36C112.54 91.4933 112.04 91.7067 111.506 92C111.36 92.08 111.226 92.1067 111.106 92.08C111 92.0533 110.913 92 110.846 91.92C110.793 91.84 110.753 91.7467 110.726 91.64C110.713 91.52 110.733 91.4067 110.786 91.3C110.84 91.1933 110.933 91.1067 111.066 91.04C111.626 90.7333 112.193 90.5067 112.766 90.36C113.353 90.2 113.92 90.12 114.466 90.12C115.253 90.12 115.9 90.2533 116.406 90.52C116.926 90.7867 117.306 91.1867 117.546 91.72C117.8 92.2533 117.926 92.94 117.926 93.78V99.5C117.926 99.7 117.88 99.8533 117.786 99.96C117.693 100.067 117.553 100.12 117.366 100.12C117.18 100.12 117.033 100.067 116.926 99.96C116.82 99.8533 116.766 99.7 116.766 99.5V97.66H116.966C116.846 98.18 116.633 98.6267 116.326 99C116.02 99.3733 115.64 99.66 115.186 99.86C114.733 100.06 114.226 100.16 113.666 100.16ZM124.776 100.16C124.056 100.16 123.456 100.027 122.976 99.76C122.496 99.4933 122.136 99.1133 121.896 98.62C121.656 98.1133 121.536 97.4933 121.536 96.76V91.28H120.056C119.882 91.28 119.742 91.24 119.636 91.16C119.529 91.0667 119.476 90.94 119.476 90.78C119.476 90.6333 119.529 90.52 119.636 90.44C119.742 90.3467 119.882 90.3 120.056 90.3H121.536V87.8C121.536 87.5867 121.589 87.4333 121.696 87.34C121.802 87.2333 121.956 87.18 122.156 87.18C122.342 87.18 122.489 87.2333 122.596 87.34C122.702 87.4333 122.756 87.5867 122.756 87.8V90.3H125.456C125.642 90.3 125.782 90.3467 125.876 90.44C125.969 90.52 126.016 90.6333 126.016 90.78C126.016 90.94 125.969 91.0667 125.876 91.16C125.782 91.24 125.642 91.28 125.456 91.28H122.756V96.6C122.756 97.4133 122.922 98.0333 123.256 98.46C123.589 98.8867 124.142 99.1 124.916 99.1C125.182 99.1 125.402 99.0733 125.576 99.02C125.762 98.9533 125.916 98.92 126.036 98.92C126.129 98.92 126.209 98.96 126.276 99.04C126.356 99.12 126.396 99.2467 126.396 99.42C126.396 99.5267 126.369 99.6333 126.316 99.74C126.276 99.8467 126.196 99.9133 126.076 99.94C125.929 99.9933 125.729 100.04 125.476 100.08C125.222 100.133 124.989 100.16 124.776 100.16ZM131.577 100.16C130.671 100.16 129.884 99.9533 129.217 99.54C128.551 99.1267 128.031 98.5467 127.657 97.8C127.297 97.0533 127.117 96.1667 127.117 95.14C127.117 94.38 127.217 93.6933 127.417 93.08C127.631 92.4667 127.931 91.94 128.317 91.5C128.717 91.0467 129.191 90.7067 129.737 90.48C130.297 90.24 130.911 90.12 131.577 90.12C132.497 90.12 133.291 90.3267 133.957 90.74C134.624 91.1533 135.137 91.74 135.497 92.5C135.871 93.2467 136.057 94.1267 136.057 95.14C136.057 95.9133 135.951 96.6067 135.737 97.22C135.537 97.8333 135.237 98.36 134.837 98.8C134.451 99.24 133.984 99.58 133.437 99.82C132.891 100.047 132.271 100.16 131.577 100.16ZM131.577 99.14C132.244 99.14 132.817 98.9867 133.297 98.68C133.791 98.36 134.164 97.9 134.417 97.3C134.684 96.7 134.817 95.98 134.817 95.14C134.817 93.8733 134.524 92.8933 133.937 92.2C133.364 91.5067 132.577 91.16 131.577 91.16C130.924 91.16 130.351 91.32 129.857 91.64C129.377 91.9467 129.004 92.4 128.737 93C128.484 93.5867 128.357 94.3 128.357 95.14C128.357 96.42 128.651 97.4067 129.237 98.1C129.824 98.7933 130.604 99.14 131.577 99.14ZM139.275 100.12C139.075 100.12 138.921 100.067 138.815 99.96C138.708 99.8533 138.655 99.7 138.655 99.5V90.8C138.655 90.5867 138.708 90.4267 138.815 90.32C138.921 90.2133 139.075 90.16 139.275 90.16C139.461 90.16 139.601 90.2133 139.695 90.32C139.801 90.4267 139.855 90.5867 139.855 90.8V92.58H139.655C139.895 91.7933 140.321 91.1867 140.935 90.76C141.561 90.3333 142.308 90.1133 143.175 90.1C143.335 90.0867 143.468 90.12 143.575 90.2C143.681 90.28 143.735 90.4067 143.735 90.58C143.748 90.7667 143.708 90.9133 143.615 91.02C143.521 91.1133 143.368 91.1733 143.155 91.2L142.875 91.22C141.928 91.3133 141.195 91.6267 140.675 92.16C140.155 92.6933 139.895 93.4133 139.895 94.32V99.5C139.895 99.7 139.841 99.8533 139.735 99.96C139.641 100.067 139.488 100.12 139.275 100.12Z" fill="white"/>
<path fill-rule="evenodd" clip-rule="evenodd" d="M53 0C58.0212 0 63.0426 0 68.0638 0C67.907 11.1854 68.0638 22.3702 68.5346 33.554C75.2087 30.3088 79.6023 26.6232 81.7154 22.4964C82.1862 14.9987 82.343 7.49988 82.1862 0C87.2074 0 92.2288 0 97.25 0C97.25 23.7673 97.25 47.5349 97.25 71.3022C92.2288 71.3022 87.2074 71.3022 82.1862 71.3022C82.343 59.9895 82.1862 48.678 81.7154 37.3669C75.6073 40.1534 71.2137 43.3311 68.5346 46.8993C68.0638 55.0327 67.907 63.1669 68.0638 71.3022C63.0426 71.3022 58.0212 71.3022 53 71.3022C53 47.5349 53 23.7673 53 0Z" fill="white"/>
</svg>
