<svg width="411" height="540" viewBox="0 0 411 540" fill="none" xmlns="http://www.w3.org/2000/svg">
<path d="M30.71 -158.938C32.643 -162.286 36.9241 -163.433 40.2721 -161.5L591.239 156.601C594.587 158.534 595.734 162.815 593.801 166.163L420.163 466.913C417.899 470.835 411.889 468.523 412.837 464.095V464.095C435.844 356.566 346.072 258.393 236.919 271.715L120.716 285.898V285.898C17.9489 292.78 -81.9817 250.461 -148.551 171.868L-155.121 164.111C-155.364 163.824 -155.401 163.416 -155.213 163.09L30.71 -158.938Z" fill="#EAC0F5"/>
<path d="M-120 -70C-120 -73.866 -116.866 -77 -113 -77H436C439.866 -77 443 -73.866 443 -70V230.068C443 233.99 437.491 234.858 436.285 231.126V231.126C406.994 140.474 297.095 105.709 220.997 163.023L140.082 223.966V223.966C66.0062 273.664 -27.2773 285.204 -111.23 255.057L-119.49 252.091C-119.796 251.981 -120 251.691 -120 251.365V-70Z" fill="#72148C"/>
</svg>
