<svg width="411" height="593" viewBox="0 0 411 593" fill="none" xmlns="http://www.w3.org/2000/svg">
<path d="M44.5686 -112.381C46.5016 -115.729 50.7828 -116.876 54.1308 -114.943L591.42 195.261C594.768 197.194 595.915 201.475 593.982 204.823L420.352 505.558C418.131 509.405 412.236 507.114 413.197 502.777V502.777C436.706 396.604 347.414 299.418 239.634 313.871L128.256 328.806V328.806C27.5519 336.707 -70.7317 295.29 -135.409 217.698L-141.287 210.646C-141.516 210.372 -141.549 209.984 -141.371 209.675L44.5686 -112.381Z" fill="#EAC0F5"/>
<path d="M77.1616 -219.006C79.1085 -222.478 83.5551 -223.629 86.9428 -221.539L397.599 -29.8646C398.52 -29.2959 399.298 -28.5213 399.869 -27.6014L554.585 221.417C555.786 223.35 555.972 225.746 555.084 227.842L423.41 538.666C420.738 544.972 411.3 542.746 411.728 535.911V535.911C420.915 389.16 299.797 267.362 152.997 275.728L-14.1959 285.255C-16.8351 285.405 -19.3339 284.056 -20.6559 281.767L-111.508 124.45C-112.743 122.311 -112.76 119.68 -111.551 117.525L77.1616 -219.006Z" fill="#72148C"/>
</svg>
