<svg width="411" height="483" viewBox="0 0 411 483" fill="none" xmlns="http://www.w3.org/2000/svg">
<path d="M84.71 -207.938C86.643 -211.286 90.9241 -212.433 94.2721 -210.5L631.561 99.7041C634.909 101.637 636.057 105.918 634.124 109.266L460.494 410.002C458.273 413.849 452.378 411.557 453.338 407.22V407.22C476.848 301.047 387.555 203.861 279.775 218.314L168.397 233.25V233.25C67.6933 241.15 -30.5904 199.734 -95.2676 122.142L-101.146 115.089C-101.375 114.815 -101.408 114.428 -101.229 114.119L84.71 -207.938Z" fill="#EAC0F5"/>
<path d="M-2.19944e-05 -92C-2.19944e-05 -95.866 3.13399 -99 6.99998 -99H581C584.866 -99 588 -95.866 588 -92V213.042C588 217.043 582.562 218.249 580.871 214.622V214.622C543.917 135.389 447.503 104.144 371.1 146.641L271.63 201.966V201.966C193.927 251.882 97.6495 263.482 10.3131 233.454L0.563734 230.101C0.22644 229.985 -2.19944e-05 229.668 -2.19944e-05 229.311V-92Z" fill="#72148C"/>
</svg>
